<svg id="Layer_1" version="1.1" viewBox="0 0 24 24" xml:space="preserve" xmlns="http://www.w3.org/2000/svg" enable-background="new 0 0 24 24"><path d="M12 21.1c-3.8 0-7.1-2.6-8-6.3-.1-.4.1-.8.5-.9.4-.1.8.1.9.5.7 3 3.4 5.1 6.6 5.1 1.2 0 2.3-.3 3.3-.9.4-.2.8-.1 1 .3.2.4.1.8-.3 1-1.2.8-2.6 1.2-4 1.2zM18 18c-.2 0-.3 0-.5-.2-.3-.2-.4-.7-.1-1.1.9-1.2 1.3-2.6 1.3-4v-1.6c0-1.5-.5-2.8-1.3-4-.2-.3-.2-.8.2-1 .3-.2.8-.2 1 .2 1.1 1.4 1.6 3.1 1.6 4.9v1.6c0 1.8-.6 3.5-1.7 5 0 .1-.3.2-.5.2zM4.5 11.9c-.4 0-.8-.3-.8-.8 0-4.5 3.7-8.3 8.3-8.3 1.5 0 3 .4 4.3 1.2.4.2.5.7.2 1-.2.4-.7.5-1 .2-1.1-.7-2.3-1-3.5-1-3.7 0-6.8 3-6.8 6.8.1.6-.3.9-.7.9zM12 15c-1.2 0-2.3-1-2.3-2.3v-1.5c0-1.2.8-2.2 1.9-2.3.9-.1 1.8.3 2.2 1 .2.3.1.8-.2 1s-.8.1-1-.2c-.2-.2-.4-.4-.8-.3-.4.1-.6.5-.6.8v1.5c0 .4.3.8.8.8.2 0 .4-.1.6-.3.3-.3.7-.4 1.1-.1.3.3.4.7.1 1.1-.5.6-1.1.8-1.8.8z" fill="#60a5fa" class="fill-000000"></path><path d="M12 18.1c-2.9 0-5.3-2.4-5.3-5.3v-1.6c0-1 .3-2 .8-2.9.2-.3.7-.4 1-.2.3.2.4.7.2 1-.4.6-.6 1.3-.6 2v1.6c0 2.1 1.7 3.8 3.8 3.8s3.8-1.7 3.8-3.8v-1.6c0-2.1-1.7-3.8-3.8-3.8-.3 0-.5 0-.8.1-.4.1-.8-.2-.9-.6-.1-.4.2-.8.6-.9.5.1.8.1 1.2.1 2.9 0 5.3 2.4 5.3 5.3v1.6c-.1 2.8-2.4 5.2-5.3 5.2zM12 1.4c2.6 0 5 1 6.7 2.7.3.3.8.3 1.1 0 .2-.1.3-.3.3-.4 0-.2-.1-.3-.2-.5-2-2-4.8-3.3-7.9-3.3-3 0-5.8 1.2-7.8 3.2-.1.2-.2.4-.2.6 0 .2 0 .4.2.5.3.3.7.3 1 0C6.9 2.5 9.3 1.4 12 1.4zM12 24.1c3 0 5.8-1.2 7.8-3.2.2-.1.2-.4.2-.6 0-.2-.1-.4-.2-.6-.3-.3-.7-.3-1 0-1.8 1.7-4.2 2.8-6.8 2.8-2.6 0-5-1-6.7-2.7-.3-.3-.8-.3-1.1 0-.2.2-.3.4-.3.5 0 .2.1.3.2.5 2 2 4.8 3.3 7.9 3.3z" fill="#60a5fa" class="fill-000000"></path></svg>